<?xml version="1.0" standalone="no"?>
<!DOCTYPE svg PUBLIC "-//W3C//DTD SVG 20010904//EN"
 "http://www.w3.org/TR/2001/REC-SVG-20010904/DTD/svg10.dtd">
<svg version="1.0" xmlns="http://www.w3.org/2000/svg"
 width="500.000000pt" height="247.000000pt" viewBox="0 0 500.000000 247.000000"
 preserveAspectRatio="xMidYMid meet">

<g transform="translate(0.000000,247.000000) scale(0.100000,-0.100000)"
fill="#000000" stroke="none">
<path d="M2447 2280 c-38 -50 -71 -90 -75 -90 -4 0 -43 36 -87 80 -44 44 -86
80 -93 80 -11 0 -13 -13 -8 -62 3 -35 8 -103 11 -153 3 -49 8 -111 11 -137 l6
-48 39 0 c36 0 38 1 34 28 -2 15 -7 65 -10 111 l-6 83 56 -48 57 -48 47 54 48
54 6 -69 c4 -39 7 -87 7 -107 0 -38 0 -38 40 -38 23 0 40 5 40 11 0 26 -21
308 -26 347 -3 23 -11 42 -17 42 -7 -1 -43 -41 -80 -90z"/>
<path d="M2690 2344 c0 -5 -12 -91 -26 -192 -15 -101 -24 -185 -21 -188 5 -5
190 -35 193 -31 1 1 4 18 8 38 l6 36 -62 9 -63 9 3 35 c2 19 6 38 8 41 2 3 25
3 51 -1 26 -5 49 -7 49 -6 1 0 4 17 8 38 l7 36 -51 7 -51 7 3 37 3 36 63 -2
62 -3 0 39 0 38 -57 7 c-32 4 -75 9 -95 13 -21 3 -38 2 -38 -3z"/>
<path d="M1816 2240 c-54 -27 -76 -48 -97 -95 -51 -111 16 -256 134 -287 82
-21 177 16 227 89 46 67 33 189 -28 256 -51 57 -162 74 -236 37z m163 -85
c111 -94 7 -272 -123 -210 -65 31 -94 133 -53 185 43 56 125 67 176 25z"/>
<path d="M3188 2170 c-88 -47 -132 -170 -94 -261 26 -62 108 -119 170 -119 20
0 27 7 34 33 8 31 7 32 -27 42 -53 15 -79 32 -96 65 -19 37 -19 73 0 110 37
71 112 90 179 45 l36 -24 16 30 c20 40 14 52 -38 78 -56 27 -130 27 -180 1z"/>
<path d="M1468 2070 c-76 -40 -99 -110 -58 -177 19 -32 71 -55 107 -48 74 15
84 14 103 -5 17 -17 18 -24 9 -41 -12 -24 -66 -49 -104 -49 l-25 0 17 -35 c20
-41 45 -45 109 -16 87 40 113 129 55 193 -28 32 -32 33 -108 34 -109 1 -105
-1 -101 36 3 27 9 34 43 47 22 8 41 16 43 17 8 5 -30 64 -41 64 -6 -1 -28 -10
-49 -20z"/>
<path d="M3473 1892 c-100 -64 -182 -119 -183 -122 0 -3 15 -15 34 -28 29 -20
37 -21 54 -11 17 11 26 8 68 -22 36 -26 49 -42 49 -60 0 -21 45 -69 66 -69 3
0 11 24 17 53 6 28 27 123 47 211 20 87 35 160 33 161 -2 2 -85 -49 -185 -113z
m65 -92 c-6 -25 -12 -47 -14 -49 -5 -6 -54 28 -54 38 0 8 72 63 76 58 2 -2 -2
-23 -8 -47z"/>
<path d="M1175 1856 c-64 -59 -68 -65 -55 -82 38 -49 243 -274 248 -274 4 0
39 29 77 64 59 54 68 67 59 82 -24 40 -41 41 -82 1 -21 -20 -42 -37 -48 -37
-6 0 -20 13 -32 30 l-22 29 35 28 c41 33 42 39 14 70 l-22 22 -39 -31 -39 -31
-25 23 c-13 13 -24 27 -24 32 0 4 18 24 40 44 l40 36 -21 29 c-11 16 -23 29
-27 29 -4 -1 -38 -29 -77 -64z"/>
<path d="M3835 1783 c-22 -20 -87 -81 -143 -136 l-104 -99 23 -24 c12 -13 25
-24 28 -24 4 0 30 21 59 46 47 41 55 45 68 32 13 -13 12 -23 -10 -83 -15 -37
-26 -75 -26 -84 0 -17 46 -69 54 -60 2 2 15 41 30 85 l27 81 42 -4 c54 -5 102
24 124 74 23 55 6 96 -69 170 l-63 62 -40 -36z m69 -102 c32 -33 32 -67 -1
-88 -20 -13 -25 -12 -60 21 l-38 35 29 30 c17 17 33 31 36 31 3 0 19 -13 34
-29z"/>
<path d="M991 1687 c-11 -19 -21 -37 -21 -41 0 -4 25 -43 55 -88 30 -45 52
-84 50 -86 -2 -3 -45 6 -95 18 -50 12 -93 21 -95 19 -2 -3 19 -40 47 -82 27
-43 47 -81 45 -84 -3 -3 -49 5 -103 18 l-96 23 -24 -29 c-13 -17 -24 -32 -24
-36 0 -7 418 -107 424 -101 3 2 -17 38 -44 80 -27 43 -45 79 -39 80 5 2 41 -4
79 -13 37 -9 76 -15 84 -13 12 2 -14 49 -100 183 -64 99 -117 181 -119 183 -1
2 -12 -12 -24 -31z"/>
<path d="M3963 1419 l-162 -100 31 -52 c85 -142 171 -178 287 -121 76 38 106
88 106 173 0 59 -4 73 -40 133 -22 37 -44 67 -50 67 -5 0 -83 -45 -172 -100z
m172 -39 c33 -63 10 -132 -55 -165 -51 -26 -88 -19 -131 24 -22 21 -39 43 -39
47 0 11 180 123 197 124 7 0 19 -13 28 -30z"/>
<path d="M4209 1082 c-27 -24 -32 -37 -38 -92 -8 -75 -15 -90 -41 -90 -28 0
-52 43 -54 96 -1 44 -2 45 -30 40 -16 -3 -32 -6 -37 -6 -17 0 -9 -94 12 -137
61 -126 219 -81 219 62 0 42 22 85 44 85 21 0 44 -32 51 -73 6 -28 11 -37 22
-33 8 3 23 6 34 6 22 0 25 24 7 82 -26 86 -124 118 -189 60z"/>
<path d="M692 1081 l-72 -6 155 -145 c86 -80 160 -146 165 -148 4 -2 13 13 20
33 10 31 9 39 -4 54 -14 16 -14 22 7 77 19 48 28 60 48 62 18 2 29 12 37 36 7
18 12 35 12 39 0 8 -259 6 -368 -2z m205 -106 c-6 -19 -13 -35 -17 -35 -3 0
-21 16 -40 35 l-34 35 51 0 51 0 -11 -35z"/>
</g>
</svg>
