<?xml version="1.0" standalone="no"?>
<!DOCTYPE svg PUBLIC "-//W3C//DTD SVG 20010904//EN"
 "http://www.w3.org/TR/2001/REC-SVG-20010904/DTD/svg10.dtd">
<svg version="1.0" xmlns="http://www.w3.org/2000/svg"
 width="500.000000pt" height="276.000000pt" viewBox="0 0 500.000000 276.000000"
 preserveAspectRatio="xMidYMid meet">

<g transform="translate(0.000000,276.000000) scale(0.100000,-0.100000)"
fill="" stroke="none">
<path d="M2447 2560 c-38 -50 -71 -90 -75 -90 -4 0 -43 36 -87 80 -44 44 -86
80 -93 80 -11 0 -13 -13 -8 -62 3 -35 8 -103 11 -153 3 -49 8 -111 11 -137 l6
-48 39 0 c36 0 38 1 34 28 -2 15 -7 65 -10 111 l-6 83 56 -48 57 -48 47 54 48
54 6 -69 c4 -39 7 -87 7 -107 0 -38 0 -38 40 -38 23 0 40 5 40 11 0 26 -21
308 -26 347 -3 23 -11 42 -17 42 -7 -1 -43 -41 -80 -90z"/>
<path d="M2690 2624 c0 -5 -12 -91 -26 -192 -15 -101 -24 -185 -21 -188 5 -5
190 -35 193 -31 1 1 4 18 8 38 l6 36 -62 9 -63 9 3 35 c2 19 6 38 8 41 2 3 25
3 51 -1 26 -5 49 -7 49 -6 1 0 4 17 8 38 l7 36 -51 7 -51 7 3 37 3 36 63 -2
62 -3 0 39 0 38 -57 7 c-32 4 -75 9 -95 13 -21 3 -38 2 -38 -3z"/>
<path d="M1816 2520 c-54 -27 -76 -48 -97 -95 -51 -111 16 -256 134 -287 82
-21 177 16 227 89 46 67 33 189 -28 256 -51 57 -162 74 -236 37z m163 -85
c111 -94 7 -272 -123 -210 -65 31 -94 133 -53 185 43 56 125 67 176 25z"/>
<path d="M3188 2450 c-88 -47 -132 -170 -94 -261 26 -62 108 -119 170 -119 20
0 27 7 34 33 8 31 7 32 -27 42 -53 15 -79 32 -96 65 -19 37 -19 73 0 110 37
71 112 90 179 45 l36 -24 16 30 c20 40 14 52 -38 78 -56 27 -130 27 -180 1z"/>
<path d="M1468 2350 c-76 -40 -99 -110 -58 -177 19 -32 71 -55 107 -48 74 15
84 14 103 -5 17 -17 18 -24 9 -41 -12 -24 -66 -49 -104 -49 l-25 0 17 -35 c20
-41 45 -45 109 -16 87 40 113 129 55 193 -28 32 -32 33 -108 34 -109 1 -105
-1 -101 36 3 27 9 34 43 47 22 8 41 16 43 17 8 5 -30 64 -41 64 -6 -1 -28 -10
-49 -20z"/>
<path d="M3473 2172 c-100 -64 -182 -119 -183 -122 0 -3 15 -15 34 -28 29 -20
37 -21 54 -11 17 11 26 8 68 -22 36 -26 49 -42 49 -60 0 -21 45 -69 66 -69 3
0 11 24 17 53 6 28 27 123 47 211 20 87 35 160 33 161 -2 2 -85 -49 -185 -113z
m65 -92 c-6 -25 -12 -47 -14 -49 -5 -6 -54 28 -54 38 0 8 72 63 76 58 2 -2 -2
-23 -8 -47z"/>
<path d="M1175 2136 c-64 -59 -68 -65 -55 -82 38 -49 243 -274 248 -274 4 0
39 29 77 64 59 54 68 67 59 82 -24 40 -41 41 -82 1 -21 -20 -42 -37 -48 -37
-6 0 -20 13 -32 30 l-22 29 35 28 c41 33 42 39 14 70 l-22 22 -39 -31 -39 -31
-25 23 c-13 13 -24 27 -24 32 0 4 18 24 40 44 l40 36 -21 29 c-11 16 -23 29
-27 29 -4 -1 -38 -29 -77 -64z"/>
<path d="M3835 2063 c-22 -20 -87 -81 -143 -136 l-104 -99 23 -24 c12 -13 25
-24 28 -24 4 0 30 21 59 46 47 41 55 45 68 32 13 -13 12 -23 -10 -83 -15 -37
-26 -75 -26 -84 0 -17 46 -69 54 -60 2 2 15 41 30 85 l27 81 42 -4 c54 -5 102
24 124 74 23 55 6 96 -69 170 l-63 62 -40 -36z m69 -102 c32 -33 32 -67 -1
-88 -20 -13 -25 -12 -60 21 l-38 35 29 30 c17 17 33 31 36 31 3 0 19 -13 34
-29z"/>
<path d="M991 1967 c-11 -19 -21 -37 -21 -41 0 -4 25 -43 55 -88 30 -45 52
-84 50 -86 -2 -3 -45 6 -95 18 -50 12 -93 21 -95 19 -2 -3 19 -40 47 -82 27
-43 47 -81 45 -84 -3 -3 -49 5 -103 18 l-96 23 -24 -29 c-13 -17 -24 -32 -24
-36 0 -7 418 -107 424 -101 3 2 -17 38 -44 80 -27 43 -45 79 -39 80 5 2 41 -4
79 -13 37 -9 76 -15 84 -13 12 2 -14 49 -100 183 -64 99 -117 181 -119 183 -1
2 -12 -12 -24 -31z"/>
<path d="M3963 1699 l-162 -100 31 -52 c85 -142 171 -178 287 -121 76 38 106
88 106 173 0 59 -4 73 -40 133 -22 37 -44 67 -50 67 -5 0 -83 -45 -172 -100z
m172 -39 c33 -63 10 -132 -55 -165 -51 -26 -88 -19 -131 24 -22 21 -39 43 -39
47 0 11 180 123 197 124 7 0 19 -13 28 -30z"/>
<path d="M4209 1362 c-27 -24 -32 -37 -38 -92 -8 -75 -15 -90 -41 -90 -28 0
-52 43 -54 96 -1 44 -2 45 -30 40 -16 -3 -32 -6 -37 -6 -17 0 -9 -94 12 -137
61 -126 219 -81 219 62 0 42 22 85 44 85 21 0 44 -32 51 -73 6 -28 11 -37 22
-33 8 3 23 6 34 6 22 0 25 24 7 82 -26 86 -124 118 -189 60z"/>
<path d="M692 1361 l-72 -6 155 -145 c86 -80 160 -146 165 -148 4 -2 13 13 20
33 10 31 9 39 -4 54 -14 16 -14 22 7 77 19 48 28 60 48 62 18 2 29 12 37 36 7
18 12 35 12 39 0 8 -259 6 -368 -2z m205 -106 c-6 -19 -13 -35 -17 -35 -3 0
-21 16 -40 35 l-34 35 51 0 51 0 -11 -35z"/>
<path d="M3339 355 c-49 -108 -74 -245 -48 -261 20 -12 30 20 25 82 -4 52 -2
63 12 67 9 3 25 8 35 12 12 5 17 2 17 -9 0 -22 9 -20 37 6 l23 21 0 -26 c0
-29 10 -33 41 -17 17 9 19 7 20 -17 1 -22 3 -19 9 13 5 22 15 57 24 77 12 30
21 37 43 38 15 1 39 5 53 9 17 6 9 7 -24 3 l-49 -6 7 29 6 29 -14 -25 c-8 -13
-29 -30 -47 -37 -28 -11 -29 -12 -6 -8 39 8 32 -30 -16 -83 -30 -32 -40 -27
-32 16 l7 37 -38 -35 -37 -35 7 28 7 28 -40 -21 c-53 -27 -56 -26 -33 13 11
17 17 37 15 44 -2 7 1 20 7 30 10 16 11 16 7 -4 -7 -34 1 -28 18 13 18 43 19
54 4 54 -5 0 -24 -29 -40 -65z m34 30 c-3 -9 -8 -14 -10 -11 -3 3 -2 9 2 15 9
16 15 13 8 -4z m-63 -230 c0 -25 -4 -45 -10 -45 -11 0 -14 49 -4 74 10 26 14
18 14 -29z"/>
<path d="M2079 376 c-7 -14 -19 -26 -28 -26 -12 0 -13 -2 -3 -8 15 -10 1 -55
-25 -84 -22 -24 -30 -23 -37 8 l-7 27 -25 -23 c-27 -26 -29 -24 -14 17 10 28
10 28 -7 6 -10 -12 -29 -23 -43 -25 -17 -2 -25 -9 -25 -22 0 -11 -6 -21 -12
-23 -18 -6 -16 18 4 47 17 24 17 25 -2 10 -11 -8 -33 -25 -48 -37 -31 -25 -77
-31 -77 -10 0 7 8 23 17 36 16 23 17 23 24 5 7 -17 8 -17 8 4 1 13 -5 22 -13
22 -20 0 -46 -39 -46 -67 0 -19 6 -23 29 -23 15 0 40 9 54 20 l25 20 5 -21 c7
-26 28 -21 42 9 5 12 18 22 27 22 14 0 16 -6 12 -30 -8 -39 -1 -38 26 5 24 39
40 45 40 15 0 -23 20 -26 39 -7 10 10 11 4 5 -29 -8 -54 7 -62 41 -22 15 18
34 33 43 34 8 2 19 10 24 18 12 21 29 20 21 0 -5 -14 -2 -16 19 -11 18 5 28 2
32 -8 8 -21 43 -19 83 6 l34 21 -7 -40 c-9 -59 10 -60 56 -1 35 45 40 48 40
26 0 -13 -7 -30 -15 -37 -18 -15 -20 -43 -2 -38 6 3 17 15 24 29 7 13 27 37
45 52 l33 29 -37 -22 -38 -22 0 36 c0 23 6 39 18 46 16 10 15 11 -3 8 -10 -2
-22 -12 -25 -23 -7 -27 -71 -115 -82 -115 -11 0 -4 43 19 113 13 42 18 47 46
48 31 2 31 2 5 6 -25 4 -27 7 -17 25 6 11 8 22 5 25 -3 3 -11 -6 -17 -21 -7
-14 -19 -26 -28 -26 -12 0 -13 -2 -3 -8 21 -14 -5 -67 -47 -96 -39 -28 -81
-34 -81 -13 0 23 32 59 47 53 8 -3 11 -1 8 4 -10 16 -21 12 -55 -20 -43 -40
-54 -38 -35 7 17 40 15 52 -5 28 -7 -8 -20 -15 -30 -15 -9 0 -34 -25 -55 -55
-20 -30 -42 -55 -47 -55 -11 0 -4 42 19 113 13 42 18 47 46 48 31 2 31 2 5 6
-25 4 -27 7 -17 25 6 11 8 22 5 25 -3 3 -11 -6 -17 -21z m71 -99 c0 -2 -10
-12 -21 -23 -22 -19 -22 -19 -10 4 10 18 31 31 31 19z m260 -91 c0 -3 -4 -8
-10 -11 -5 -3 -10 -1 -10 4 0 6 5 11 10 11 6 0 10 -2 10 -4z"/>
<path d="M1401 330 c-28 -57 -54 -89 -74 -90 -4 0 0 16 8 37 17 40 15 52 -5
28 -7 -8 -20 -15 -29 -15 -10 0 -28 -11 -40 -24 -19 -20 -27 -23 -41 -13 -14
8 -22 8 -35 -3 -14 -12 -16 -12 -15 1 6 39 -2 43 -26 14 l-26 -30 6 27 c3 14
8 34 11 45 3 10 -1 5 -9 -12 -19 -41 -30 -95 -19 -95 5 0 17 14 27 31 17 28
19 29 31 13 11 -15 16 -16 28 -6 11 9 17 10 22 2 4 -6 14 -9 23 -5 8 3 19 0
23 -6 5 -8 12 -5 25 10 21 24 36 28 28 6 -7 -17 9 -19 37 -5 18 10 19 8 14
-32 -4 -34 -3 -38 4 -20 6 12 19 22 29 22 10 0 34 9 55 19 36 18 37 18 37 0 0
-29 35 -23 72 12 l33 31 -33 -26 c-49 -39 -88 -33 -42 7 20 17 27 47 12 47 -5
0 -19 -11 -31 -24 -24 -25 -79 -56 -101 -56 -6 0 0 14 15 31 14 17 23 34 20
38 -4 3 -18 -7 -32 -24 -25 -28 -25 -28 -18 -5 4 14 19 47 32 73 13 27 22 51
19 54 -3 3 -19 -23 -35 -57z m121 -62 c-7 -7 -12 -8 -12 -2 0 14 12 26 19 19
2 -3 -1 -11 -7 -17z m-212 9 c0 -2 -10 -12 -21 -23 -22 -19 -22 -19 -10 4 10
18 31 31 31 19z"/>
<path d="M2970 338 c-22 -52 -56 -98 -72 -98 -4 0 -1 16 7 37 17 40 15 52 -5
28 -7 -8 -20 -15 -29 -15 -10 0 -28 -11 -40 -24 -19 -20 -27 -23 -41 -13 -14
8 -22 8 -35 -3 -14 -12 -16 -12 -15 1 6 39 -2 43 -26 14 l-26 -30 6 27 c3 14
8 34 11 45 3 10 -1 5 -9 -12 -19 -41 -30 -95 -19 -95 5 0 17 14 27 31 17 28
19 29 31 13 11 -15 16 -16 28 -6 11 9 17 10 22 2 4 -6 14 -9 23 -5 8 3 19 0
23 -6 5 -8 12 -5 25 10 21 24 36 28 28 6 -7 -17 9 -19 36 -5 16 9 18 6 14 -33
-4 -34 -3 -38 5 -19 6 12 18 22 28 22 10 0 31 7 48 16 27 14 31 14 41 0 17
-24 40 -19 76 15 l33 31 -36 -26 c-42 -31 -52 -32 -70 -9 -11 13 -11 15 -1 9
15 -9 52 20 52 41 0 16 -16 17 -26 2 -10 -17 -96 -69 -113 -69 -11 0 -9 6 7
23 32 34 28 56 -4 26 l-26 -24 7 25 c4 14 12 34 19 45 22 37 36 75 27 75 -5 0
-19 -24 -31 -52z m125 -67 c-3 -6 -11 -11 -17 -11 -6 0 -6 6 2 15 14 17 26 13
15 -4z m-215 6 c0 -2 -10 -12 -21 -23 -22 -19 -22 -19 -10 4 10 18 31 31 31
19z"/>
<path d="M2148 353 c7 -3 16 -2 19 1 4 3 -2 6 -13 5 -11 0 -14 -3 -6 -6z"/>
<path d="M2438 353 c7 -3 16 -2 19 1 4 3 -2 6 -13 5 -11 0 -14 -3 -6 -6z"/>
<path d="M3622 268 l-33 -33 7 30 c5 25 0 21 -35 -27 -23 -32 -46 -58 -52 -58
-5 0 -9 -4 -9 -10 0 -18 25 0 49 35 13 19 28 32 33 29 5 -3 20 2 33 10 21 14
25 14 25 2 0 -23 17 -28 42 -14 13 7 26 11 31 10 4 -1 7 2 7 7 0 5 3 18 7 28
4 12 -6 7 -28 -14 -19 -18 -38 -33 -42 -33 -5 0 -5 16 -1 35 3 19 5 35 2 35
-2 0 -18 -15 -36 -32z"/>
<path d="M3806 279 c-21 -17 -30 -18 -41 -9 -12 10 -18 6 -33 -20 -13 -20 -21
-27 -24 -18 -3 7 -7 1 -10 -14 -7 -38 6 -35 30 6 15 26 25 33 40 29 11 -3 22
-13 25 -24 3 -10 14 -19 24 -19 20 0 96 59 77 60 -6 0 -21 -11 -34 -25 -23
-24 -60 -34 -60 -16 0 5 11 16 25 25 24 16 35 46 16 46 -4 0 -20 -9 -35 -21z
m29 -8 c-3 -6 -11 -11 -17 -11 -6 0 -6 6 2 15 14 17 26 13 15 -4z"/>
</g>
</svg>
